<svg width="14" height="14" viewBox="0 0 14 14" fill="none" xmlns="http://www.w3.org/2000/svg">
<path d="M6.33398 10.334H7.66732V6.33398H6.33398V10.334ZM7.00065 5.00065C7.18954 5.00065 7.34787 4.93676 7.47565 4.80898C7.60343 4.68121 7.66732 4.52287 7.66732 4.33398C7.66732 4.1451 7.60343 3.98676 7.47565 3.85898C7.34787 3.73121 7.18954 3.66732 7.00065 3.66732C6.81176 3.66732 6.65343 3.73121 6.52565 3.85898C6.39787 3.98676 6.33398 4.1451 6.33398 4.33398C6.33398 4.52287 6.39787 4.68121 6.52565 4.80898C6.65343 4.93676 6.81176 5.00065 7.00065 5.00065ZM7.00065 13.6673C6.07843 13.6673 5.21176 13.4923 4.40065 13.1423C3.58954 12.7923 2.88398 12.3173 2.28398 11.7173C1.68398 11.1173 1.20898 10.4118 0.858984 9.60065C0.508984 8.78954 0.333984 7.92287 0.333984 7.00065C0.333984 6.07843 0.508984 5.21176 0.858984 4.40065C1.20898 3.58954 1.68398 2.88398 2.28398 2.28398C2.88398 1.68398 3.58954 1.20898 4.40065 0.858984C5.21176 0.508984 6.07843 0.333984 7.00065 0.333984C7.92287 0.333984 8.78954 0.508984 9.60065 0.858984C10.4118 1.20898 11.1173 1.68398 11.7173 2.28398C12.3173 2.88398 12.7923 3.58954 13.1423 4.40065C13.4923 5.21176 13.6673 6.07843 13.6673 7.00065C13.6673 7.92287 13.4923 8.78954 13.1423 9.60065C12.7923 10.4118 12.3173 11.1173 11.7173 11.7173C11.1173 12.3173 10.4118 12.7923 9.60065 13.1423C8.78954 13.4923 7.92287 13.6673 7.00065 13.6673Z" fill="#999999"/>
</svg>
