<svg width="18" height="18" viewBox="0 0 18 18" fill="none" xmlns="http://www.w3.org/2000/svg">
<path d="M7.71429 10.2857H1.28571C0.921429 10.2857 0.616071 10.1625 0.369643 9.91607C0.123214 9.66964 0 9.36429 0 9C0 8.63571 0.123214 8.33036 0.369643 8.08393C0.616071 7.8375 0.921429 7.71429 1.28571 7.71429H7.71429V1.28571C7.71429 0.921429 7.8375 0.616071 8.08393 0.369643C8.33036 0.123214 8.63571 0 9 0C9.36429 0 9.66964 0.123214 9.91607 0.369643C10.1625 0.616071 10.2857 0.921429 10.2857 1.28571V7.71429H16.7143C17.0786 7.71429 17.3839 7.8375 17.6304 8.08393C17.8768 8.33036 18 8.63571 18 9C18 9.36429 17.8768 9.66964 17.6304 9.91607C17.3839 10.1625 17.0786 10.2857 16.7143 10.2857H10.2857V16.7143C10.2857 17.0786 10.1625 17.3839 9.91607 17.6304C9.66964 17.8768 9.36429 18 9 18C8.63571 18 8.33036 17.8768 8.08393 17.6304C7.8375 17.3839 7.71429 17.0786 7.71429 16.7143V10.2857Z" fill="#999999"/>
</svg>
