<svg width="100" height="16" viewBox="0 0 100 16" fill="none" xmlns="http://www.w3.org/2000/svg">
<path d="M15.6824 8.07002V10.9934H0V8.07002H5.79684V7.26477H0.436126V0.19256H4.50663V1.12035H11.1576V0.19256H15.2281V7.26477H9.88552V8.07002H15.6824ZM0.436126 14.7221V11.7812H15.2462V15.9125H11.1757V14.7221H0.436126ZM4.50663 3.76368V4.53392H11.1576V3.76368H4.50663Z" fill="white"/>
<path d="M24.0051 4.00875C24.0051 5.65427 24.1505 7.08972 24.423 8.28009C24.7138 9.47046 25.1136 10.3982 25.6406 11.046C26.1312 11.6937 26.7127 12.0438 27.3851 12.1138L26.5128 15.3698C25.6951 15.3173 24.8955 15.0372 24.1323 14.5295C23.3509 14.0219 22.6785 13.3042 22.097 12.3939C21.4974 13.3217 20.8068 14.0394 20.0436 14.5295C19.2804 15.0197 18.4627 15.3173 17.6631 15.3698L16.7908 12.1138C17.972 12.0088 18.8261 11.2735 19.3713 9.94311C19.9164 8.61269 20.1708 6.63457 20.1708 3.99125V3.37856H17.227V0.245077H26.9489V3.39606H24.0233V4.00875H24.0051ZM28.3663 0H32.4732V16H28.3663V0Z" fill="white"/>
<path d="M33.9996 12.2013V9.26039H44.5393V12.2013H41.1594L40.9413 16H37.0525V12.2013H33.9996ZM36.471 7.92998C35.7441 7.57987 35.199 7.10722 34.7992 6.47702C34.3994 5.86433 34.2177 5.14661 34.2177 4.34136C34.2177 3.5361 34.4176 2.81838 34.7992 2.18818C35.1808 1.55799 35.7441 1.08534 36.471 0.73523C37.1979 0.402626 38.0338 0.227571 38.9606 0.227571C39.8873 0.227571 40.7414 0.402626 41.4683 0.73523C42.1952 1.08534 42.7585 1.55799 43.1765 2.17068C43.5762 2.80088 43.758 3.5186 43.758 4.34136C43.758 5.16411 43.5581 5.86433 43.1583 6.49453C42.7585 7.12473 42.1952 7.59737 41.4683 7.92998C40.7596 8.28009 39.9237 8.45514 38.9606 8.45514C37.9975 8.45514 37.1797 8.28009 36.471 7.94748V7.92998ZM38.161 4.70897C38.161 4.95405 38.2337 5.14661 38.3791 5.28665C38.5244 5.4267 38.7243 5.51422 38.9606 5.51422C39.1968 5.51422 39.3967 5.4442 39.5421 5.28665C39.6874 5.1291 39.7601 4.95405 39.7601 4.70897V3.95624C39.7601 3.71116 39.6874 3.5186 39.5421 3.37856C39.3967 3.23851 39.1968 3.15098 38.9606 3.15098C38.7243 3.15098 38.5244 3.22101 38.3791 3.37856C38.2337 3.5361 38.161 3.71116 38.161 3.95624V4.70897ZM49.3004 0.0350109V16H45.1754V0.0350109H49.3004Z" fill="white"/>
<path d="M50.6088 12.2188C51.4083 12.2188 52.2261 11.9387 53.0438 11.3961C53.9342 10.8009 54.6429 9.83807 55.2063 8.47265C55.7514 7.10722 56.0422 5.40919 56.0422 3.34354H50.8268V0.210066H60.1308V3.36105C60.1308 5.79431 59.7492 7.91247 59.0042 9.69803C58.241 11.5186 57.1688 12.919 55.7878 13.8993C54.4067 14.8796 52.8257 15.3698 51.0449 15.3698L50.6088 12.2188ZM66.0912 0.0350109V16H61.9844V0.0350109H66.0912Z" fill="white"/>
<path d="M73.3963 0.0175055C74.6865 0.0175055 75.7042 0.332604 76.4129 0.962801C77.1397 1.593 77.485 2.46827 77.485 3.58862C77.485 4.70897 77.1216 5.58424 76.4129 6.21444C75.686 6.84464 74.6865 7.15974 73.3963 7.15974H71.7245C70.4343 7.15974 69.4167 6.84464 68.708 6.21444C67.9811 5.58424 67.6358 4.70897 67.6358 3.58862C67.6358 2.46827 67.9993 1.593 68.708 0.962801C69.4349 0.332604 70.4343 0.0175055 71.7245 0.0175055L73.3963 0V0.0175055ZM72.1606 13.0591V13.6893H83.1001V16H68.0538V10.7484H78.8116V10.1182H68.0538V7.80744H82.8821V13.0591H72.1606ZM72.9057 4.30635C73.1601 4.30635 73.3418 4.23632 73.469 4.11379C73.5962 3.99125 73.6689 3.79869 73.6689 3.57112C73.6689 3.08096 73.4145 2.83589 72.9057 2.83589H72.2333C71.9971 2.83589 71.8154 2.90591 71.67 3.02845C71.5246 3.15098 71.4701 3.34354 71.4701 3.57112C71.4701 3.79869 71.5428 3.97374 71.67 4.11379C71.8154 4.25383 71.9971 4.30635 72.2333 4.30635H72.9057ZM82.8821 2.2407H84.5175V4.90153H82.8821V7.21225H78.8116V0.0350109H82.8821V2.2407Z" fill="white"/>
<path d="M88.8424 5.74179V6.45952H94.4757V8.85777H84.7538V3.34354H89.9509V2.62582H84.7538V0.210066H94.0396V5.74179H88.8424ZM100 16H85.1717V9.89059H100V16ZM89.2786 12.5339V13.3742H95.9113V12.5339H89.2786ZM100 9.05033H95.8932V0.0350109H100V9.05033Z" fill="white"/>
</svg>
