<svg width="17" height="16" viewBox="0 0 17 16" fill="none" xmlns="http://www.w3.org/2000/svg">
<mask id="mask0_456_52" style="mask-type:alpha" maskUnits="userSpaceOnUse" x="0" y="0" width="17" height="16">
<rect x="0.5" width="16" height="16" fill="#D9D9D9"/>
</mask>
<g mask="url(#mask0_456_52)">
<path d="M7.83331 11.332H9.16665V7.33203H7.83331V11.332ZM8.49998 5.9987C8.68887 5.9987 8.8472 5.93481 8.97498 5.80703C9.10276 5.67925 9.16665 5.52092 9.16665 5.33203C9.16665 5.14314 9.10276 4.98481 8.97498 4.85703C8.8472 4.72925 8.68887 4.66536 8.49998 4.66536C8.31109 4.66536 8.15276 4.72925 8.02498 4.85703C7.8972 4.98481 7.83331 5.14314 7.83331 5.33203C7.83331 5.52092 7.8972 5.67925 8.02498 5.80703C8.15276 5.93481 8.31109 5.9987 8.49998 5.9987ZM8.49998 14.6654C7.57776 14.6654 6.71109 14.4904 5.89998 14.1404C5.08887 13.7904 4.38331 13.3154 3.78331 12.7154C3.18331 12.1154 2.70831 11.4098 2.35831 10.5987C2.00831 9.78759 1.83331 8.92092 1.83331 7.9987C1.83331 7.07648 2.00831 6.20981 2.35831 5.3987C2.70831 4.58759 3.18331 3.88203 3.78331 3.28203C4.38331 2.68203 5.08887 2.20703 5.89998 1.85703C6.71109 1.50703 7.57776 1.33203 8.49998 1.33203C9.4222 1.33203 10.2889 1.50703 11.1 1.85703C11.9111 2.20703 12.6166 2.68203 13.2166 3.28203C13.8166 3.88203 14.2916 4.58759 14.6416 5.3987C14.9916 6.20981 15.1666 7.07648 15.1666 7.9987C15.1666 8.92092 14.9916 9.78759 14.6416 10.5987C14.2916 11.4098 13.8166 12.1154 13.2166 12.7154C12.6166 13.3154 11.9111 13.7904 11.1 14.1404C10.2889 14.4904 9.4222 14.6654 8.49998 14.6654Z" fill="#00D4E9"/>
</g>
</svg>
