<svg width="20" height="21" viewBox="0 0 20 21" fill="none" xmlns="http://www.w3.org/2000/svg">
<mask id="mask0_357_4457" style="mask-type:alpha" maskUnits="userSpaceOnUse" x="0" y="0" width="20" height="21">
<rect y="0.537109" width="20" height="20" fill="#D9D9D9"/>
</mask>
<g mask="url(#mask0_357_4457)">
<path d="M14.9997 13.6624C14.9997 15.1069 14.4927 16.336 13.4788 17.3499C12.465 18.3638 11.2358 18.8708 9.79134 18.8708C8.3469 18.8708 7.11773 18.3638 6.10384 17.3499C5.08995 16.336 4.58301 15.1069 4.58301 13.6624V5.9541C4.58301 4.91243 4.94759 4.02702 5.67676 3.29785C6.40592 2.56868 7.29134 2.2041 8.33301 2.2041C9.37467 2.2041 10.2601 2.56868 10.9893 3.29785C11.7184 4.02702 12.083 4.91243 12.083 5.9541V13.2458C12.083 13.8847 11.8608 14.4263 11.4163 14.8708C10.9719 15.3152 10.4302 15.5374 9.79134 15.5374C9.15245 15.5374 8.61079 15.3152 8.16634 14.8708C7.7219 14.4263 7.49967 13.8847 7.49967 13.2458V5.53743H9.16634V13.2458C9.16634 13.4263 9.22537 13.5756 9.34342 13.6937C9.46148 13.8117 9.61079 13.8708 9.79134 13.8708C9.9719 13.8708 10.1212 13.8117 10.2393 13.6937C10.3573 13.5756 10.4163 13.4263 10.4163 13.2458V5.9541C10.4025 5.37077 10.1976 4.87771 9.80176 4.47493C9.40592 4.07216 8.91634 3.87077 8.33301 3.87077C7.74967 3.87077 7.25662 4.07216 6.85384 4.47493C6.45106 4.87771 6.24967 5.37077 6.24967 5.9541V13.6624C6.23579 14.6485 6.57606 15.4854 7.27051 16.1729C7.96495 16.8604 8.80523 17.2041 9.79134 17.2041C10.7636 17.2041 11.59 16.8604 12.2705 16.1729C12.9511 15.4854 13.3052 14.6485 13.333 13.6624V5.53743H14.9997V13.6624Z" fill="#999999"/>
</g>
</svg>
