<svg width="24" height="24" viewBox="0 0 24 24" fill="none" xmlns="http://www.w3.org/2000/svg">
<mask id="mask0_357_1918" style="mask-type:alpha" maskUnits="userSpaceOnUse" x="0" y="0" width="24" height="24">
<rect width="24" height="24" fill="#D9D9D9"/>
</mask>
<g mask="url(#mask0_357_1918)">
<path d="M12 22C10.6167 22 9.31667 21.7375 8.1 21.2125C6.88333 20.6875 5.825 19.975 4.925 19.075C4.025 18.175 3.3125 17.1167 2.7875 15.9C2.2625 14.6833 2 13.3833 2 12C2 10.6167 2.2625 9.31667 2.7875 8.1C3.3125 6.88333 4.025 5.825 4.925 4.925C5.825 4.025 6.88333 3.3125 8.1 2.7875C9.31667 2.2625 10.6167 2 12 2C13.3833 2 14.6833 2.2625 15.9 2.7875C17.1167 3.3125 18.175 4.025 19.075 4.925C19.975 5.825 20.6875 6.88333 21.2125 8.1C21.7375 9.31667 22 10.6167 22 12C22 13.3833 21.7375 14.6833 21.2125 15.9C20.6875 17.1167 19.975 18.175 19.075 19.075C18.175 19.975 17.1167 20.6875 15.9 21.2125C14.6833 21.7375 13.3833 22 12 22ZM12 20C14.2333 20 16.125 19.225 17.675 17.675C19.225 16.125 20 14.2333 20 12C20 9.76667 19.225 7.875 17.675 6.325C16.125 4.775 14.2333 4 12 4C9.76667 4 7.875 4.775 6.325 6.325C4.775 7.875 4 9.76667 4 12C4 14.2333 4.775 16.125 6.325 17.675C7.875 19.225 9.76667 20 12 20ZM12 19C12.4167 19 12.7708 18.8542 13.0625 18.5625C13.3542 18.2708 13.5 17.9167 13.5 17.5H10.5C10.5 17.9167 10.6458 18.2708 10.9375 18.5625C11.2292 18.8542 11.5833 19 12 19ZM9 16.5H15V15H9V16.5ZM9.025 14H14.975C15.5917 13.55 16.0833 12.9792 16.45 12.2875C16.8167 11.5958 17 10.8333 17 10C17 8.61667 16.5125 7.4375 15.5375 6.4625C14.5625 5.4875 13.3833 5 12 5C10.6167 5 9.4375 5.4875 8.4625 6.4625C7.4875 7.4375 7 8.61667 7 10C7 10.8333 7.18333 11.5958 7.55 12.2875C7.91667 12.9792 8.40833 13.55 9.025 14ZM9.575 12.5C9.24167 12.1667 8.97917 11.7875 8.7875 11.3625C8.59583 10.9375 8.5 10.4833 8.5 10C8.5 9.03333 8.84167 8.20833 9.525 7.525C10.2083 6.84167 11.0333 6.5 12 6.5C12.9667 6.5 13.7917 6.84167 14.475 7.525C15.1583 8.20833 15.5 9.03333 15.5 10C15.5 10.4833 15.4042 10.9375 15.2125 11.3625C15.0208 11.7875 14.7583 12.1667 14.425 12.5H9.575Z" fill="#FEB700"/>
</g>
</svg>
