<svg width="16" height="16" viewBox="0 0 16 16" fill="none" xmlns="http://www.w3.org/2000/svg">
<mask id="mask0_357_5479" style="mask-type:alpha" maskUnits="userSpaceOnUse" x="0" y="0" width="16" height="16">
<rect width="16" height="16" fill="#D9D9D9"/>
</mask>
<g mask="url(#mask0_357_5479)">
<path d="M7.33301 11.334H8.66634V7.33398H7.33301V11.334ZM7.99967 6.00065C8.18856 6.00065 8.3469 5.93676 8.47467 5.80898C8.60245 5.68121 8.66634 5.52287 8.66634 5.33398C8.66634 5.1451 8.60245 4.98676 8.47467 4.85898C8.3469 4.73121 8.18856 4.66732 7.99967 4.66732C7.81079 4.66732 7.65245 4.73121 7.52467 4.85898C7.3969 4.98676 7.33301 5.1451 7.33301 5.33398C7.33301 5.52287 7.3969 5.68121 7.52467 5.80898C7.65245 5.93676 7.81079 6.00065 7.99967 6.00065ZM7.99967 14.6673C7.07745 14.6673 6.21079 14.4923 5.39967 14.1423C4.58856 13.7923 3.88301 13.3173 3.28301 12.7173C2.68301 12.1173 2.20801 11.4118 1.85801 10.6007C1.50801 9.78954 1.33301 8.92287 1.33301 8.00065C1.33301 7.07843 1.50801 6.21176 1.85801 5.40065C2.20801 4.58954 2.68301 3.88398 3.28301 3.28398C3.88301 2.68398 4.58856 2.20898 5.39967 1.85898C6.21079 1.50898 7.07745 1.33398 7.99967 1.33398C8.9219 1.33398 9.78856 1.50898 10.5997 1.85898C11.4108 2.20898 12.1163 2.68398 12.7163 3.28398C13.3163 3.88398 13.7913 4.58954 14.1413 5.40065C14.4913 6.21176 14.6663 7.07843 14.6663 8.00065C14.6663 8.92287 14.4913 9.78954 14.1413 10.6007C13.7913 11.4118 13.3163 12.1173 12.7163 12.7173C12.1163 13.3173 11.4108 13.7923 10.5997 14.1423C9.78856 14.4923 8.9219 14.6673 7.99967 14.6673Z" fill="#00D4E9"/>
</g>
</svg>
