<svg width="12" height="10" viewBox="0 0 12 10" fill="none" xmlns="http://www.w3.org/2000/svg">
<path d="M10.2918 4.99572L9.93252 5.35118L6.56941 8.67817L6.56852 8.67906C6.48252 8.7637 6.43626 8.86441 6.43626 9.01853C6.43626 9.17266 6.48252 9.27337 6.56852 9.35801L6.56853 9.35802C6.67189 9.45977 6.78045 9.50271 6.92312 9.49987C7.08119 9.49671 7.18967 9.44774 7.28083 9.35801L11.3624 5.34043C11.4157 5.288 11.4464 5.23845 11.4644 5.19147L11.4644 5.19145C11.4879 5.13039 11.5 5.06626 11.5 4.99572C11.5 4.92519 11.4879 4.86105 11.4644 4.79999L11.4644 4.79997C11.4464 4.75299 11.4157 4.70344 11.3624 4.65102L7.28083 0.63343C7.19433 0.54829 7.08816 0.5 6.92467 0.5C6.76118 0.5 6.65501 0.54829 6.56852 0.63343C6.46538 0.734948 6.42496 0.83794 6.42769 0.970909L10.2918 4.99572ZM10.2918 4.99572L9.93252 4.64026M10.2918 4.99572L9.93252 4.64026M9.93252 4.64026L6.56941 1.31327L6.56852 1.31239M9.93252 4.64026L6.56852 1.31239M6.56852 1.31239C6.47776 1.22306 6.43077 1.11984 6.42769 0.970935L6.56852 1.31239ZM3.99991 5.3509L4.35837 4.99572L3.99991 4.64054L0.642103 1.31354L0.642105 1.31354L0.64093 1.31239C0.550178 1.22306 0.50319 1.11984 0.500128 0.970936L0.500127 0.970908C0.497385 0.837935 0.537795 0.734948 0.64093 0.63343C0.727427 0.54829 0.833597 0.5 0.997086 0.5C1.16058 0.5 1.26674 0.54829 1.35324 0.63343L5.43485 4.65102L5.43488 4.65104C5.48813 4.70345 5.5188 4.75299 5.53682 4.79992L5.53684 4.79999C5.56029 4.86105 5.57241 4.92518 5.57241 4.99572C5.57241 5.06626 5.56029 5.1304 5.53684 5.19145L5.53682 5.19152C5.5188 5.23846 5.48813 5.28799 5.43488 5.3404L5.43485 5.34043L1.35324 9.35801C1.26208 9.44774 1.1536 9.49671 0.995561 9.49987C0.852883 9.50271 0.744311 9.45977 0.64093 9.35801C0.554937 9.27337 0.508674 9.17266 0.508674 9.01853C0.508674 8.86441 0.554937 8.7637 0.640932 8.67906L0.642103 8.6779L3.99991 5.3509Z" fill="#999999" stroke="#DDDDDD"/>
</svg>
