<svg width="28" height="28" viewBox="0 0 28 28" fill="none" xmlns="http://www.w3.org/2000/svg">
<g clip-path="url(#clip0_489_79)">
<path d="M19.8933 16.3352H18.9716L18.645 16.0202C20.045 14.3869 20.7683 12.1585 20.3716 9.79022C19.8233 6.54688 17.1166 3.96855 13.8616 3.56022C9.43997 3.01188 5.65997 6.27855 5.34497 10.5019H7.70164C7.98164 8.02855 9.94164 6.06855 12.4383 5.85855C15.4016 5.60188 18.1433 8.11022 18.1433 11.0852C18.1433 13.9902 15.7983 16.3352 12.8933 16.3352C12.695 16.3352 12.5083 16.3002 12.31 16.2769V18.6335C12.31 18.6335 12.31 18.6335 12.3216 18.6452C14.4216 18.7969 16.37 18.0969 17.8283 16.8369L18.1433 17.1635V18.0852L23.1016 23.0435C23.58 23.5219 24.3616 23.5219 24.84 23.0435C25.3183 22.5652 25.3183 21.7835 24.84 21.3052L19.8933 16.3352Z" fill="white"/>
<path d="M8.95 13.0344L6.47667 15.5077L4.00333 13.0344C3.77 12.801 3.40833 12.801 3.175 13.0344C2.94167 13.2677 2.94167 13.6294 3.175 13.8627L5.64833 16.336L3.175 18.8094C2.94167 19.0427 2.94167 19.4044 3.175 19.6377C3.40833 19.871 3.77 19.871 4.00333 19.6377L6.47667 17.1644L8.95 19.6377C9.18333 19.871 9.545 19.871 9.77833 19.6377C10.0117 19.4044 10.0117 19.0427 9.77833 18.8094L7.305 16.336L9.77833 13.8627C10.0117 13.6294 10.0117 13.2677 9.77833 13.0344C9.545 12.8127 9.18333 12.8127 8.95 13.0344Z" fill="white"/>
</g>
<defs>
<clipPath id="clip0_489_79">
<rect width="28" height="28" fill="white"/>
</clipPath>
</defs>
</svg>
