<svg width="12" height="10" viewBox="0 0 12 10" fill="none" xmlns="http://www.w3.org/2000/svg">
<path d="M2.41912 5.00428L5.78223 8.33128C5.9699 8.51601 6.06656 8.74517 6.0722 9.01878C6.07783 9.29238 5.98117 9.52709 5.78223 9.72291C5.59456 9.90764 5.35893 10 5.07533 10C4.79173 10 4.5561 9.90764 4.36843 9.72291L0.286817 5.70532C0.187354 5.60742 0.114685 5.49874 0.0688111 5.37928C0.0229369 5.25983 0 5.13483 0 5.00428C0 4.87373 0.0229369 4.74873 0.0688111 4.62928C0.114685 4.50982 0.187354 4.40114 0.286817 4.30324L4.36843 0.285651C4.5561 0.100923 4.78892 0.00578175 5.06689 0.000228523C5.34486 -0.00531013 5.58331 0.0898307 5.78223 0.285651C5.9699 0.47038 6.06374 0.702318 6.06374 0.981466C6.06374 1.26061 5.9699 1.49255 5.78223 1.67728L2.41912 5.00428ZM8.35202 5.00428L11.7098 8.33128C11.8975 8.51601 11.9941 8.74517 11.9998 9.01878C12.0054 9.29238 11.9088 9.52709 11.7098 9.72291C11.5221 9.90764 11.2865 10 11.0029 10C10.7193 10 10.4837 9.90764 10.296 9.72291L6.2144 5.70532C6.11492 5.60742 6.04226 5.49874 5.9964 5.37928C5.95052 5.25983 5.92758 5.13483 5.92758 5.00428C5.92758 4.87373 5.95052 4.74873 5.9964 4.62928C6.04226 4.50982 6.11492 4.40114 6.2144 4.30324L10.296 0.285651C10.4837 0.100923 10.7165 0.00578175 10.9945 0.000228523C11.2724 -0.00531013 11.5109 0.0898307 11.7098 0.285651C11.8975 0.47038 11.9913 0.702318 11.9913 0.981466C11.9913 1.26061 11.8975 1.49255 11.7098 1.67728L8.35202 5.00428Z" fill="#DDDDDD"/>
</svg>
