<svg width="20" height="20" viewBox="0 0 20 20" fill="none" xmlns="http://www.w3.org/2000/svg">
<mask id="mask0_182_329" style="mask-type:alpha" maskUnits="userSpaceOnUse" x="0" y="0" width="20" height="20">
<rect width="20" height="20" fill="#D9D9D9"/>
</mask>
<g mask="url(#mask0_182_329)">
<path d="M9.16667 11.666V9.99935H10.8333V11.666H9.16667ZM5.83333 11.666V9.99935H7.5V11.666H5.83333ZM12.5 11.666V9.99935H14.1667V11.666H12.5ZM9.16667 14.9993V13.3327H10.8333V14.9993H9.16667ZM5.83333 14.9993V13.3327H7.5V14.9993H5.83333ZM12.5 14.9993V13.3327H14.1667V14.9993H12.5ZM2.5 18.3327V3.33268H5V1.66602H6.66667V3.33268H13.3333V1.66602H15V3.33268H17.5V18.3327H2.5ZM4.16667 16.666H15.8333V8.33268H4.16667V16.666ZM4.16667 6.66602H15.8333V4.99935H4.16667V6.66602Z" fill="#333333"/>
</g>
</svg>
