<svg width="14" height="14" viewBox="0 0 14 14" fill="none" xmlns="http://www.w3.org/2000/svg">
<path d="M6.33301 10.3335H7.66634V6.3335H6.33301V10.3335ZM6.99967 5.00016C7.18856 5.00016 7.3469 4.93627 7.47467 4.8085C7.60245 4.68072 7.66634 4.52238 7.66634 4.3335C7.66634 4.14461 7.60245 3.98627 7.47467 3.8585C7.3469 3.73072 7.18856 3.66683 6.99967 3.66683C6.81079 3.66683 6.65245 3.73072 6.52467 3.8585C6.3969 3.98627 6.33301 4.14461 6.33301 4.3335C6.33301 4.52238 6.3969 4.68072 6.52467 4.8085C6.65245 4.93627 6.81079 5.00016 6.99967 5.00016ZM6.99967 13.6668C6.07745 13.6668 5.21079 13.4918 4.39967 13.1418C3.58856 12.7918 2.88301 12.3168 2.28301 11.7168C1.68301 11.1168 1.20801 10.4113 0.858008 9.60016C0.508008 8.78905 0.333008 7.92238 0.333008 7.00016C0.333008 6.07794 0.508008 5.21127 0.858008 4.40016C1.20801 3.58905 1.68301 2.8835 2.28301 2.2835C2.88301 1.6835 3.58856 1.2085 4.39967 0.858496C5.21079 0.508496 6.07745 0.333496 6.99967 0.333496C7.9219 0.333496 8.78856 0.508496 9.59967 0.858496C10.4108 1.2085 11.1163 1.6835 11.7163 2.2835C12.3163 2.8835 12.7913 3.58905 13.1413 4.40016C13.4913 5.21127 13.6663 6.07794 13.6663 7.00016C13.6663 7.92238 13.4913 8.78905 13.1413 9.60016C12.7913 10.4113 12.3163 11.1168 11.7163 11.7168C11.1163 12.3168 10.4108 12.7918 9.59967 13.1418C8.78856 13.4918 7.9219 13.6668 6.99967 13.6668Z" fill="#999999"/>
</svg>
