<svg width="6" height="10" viewBox="0 0 6 10" fill="none" xmlns="http://www.w3.org/2000/svg">
<path d="M2.37697 5L5.72145 8.32985C5.90715 8.51473 6 8.74687 6 9.02626C6 9.30565 5.90715 9.53778 5.72145 9.72267C5.53575 9.90756 5.30259 10 5.02198 10C4.74136 10 4.50821 9.90756 4.32251 9.72267L0.283802 5.70164C0.185384 5.60365 0.11348 5.49488 0.0680877 5.37532C0.0226958 5.25577 0 5.13066 0 5C0 4.86934 0.0226958 4.74423 0.0680877 4.62468C0.11348 4.50512 0.185384 4.39635 0.283802 4.29836L4.32251 0.277331C4.50821 0.0924437 4.74136 0 5.02198 0C5.30259 0 5.53575 0.0924437 5.72145 0.277331C5.90715 0.462218 6 0.694355 6 0.973742C6 1.25313 5.90715 1.48527 5.72145 1.67015L2.37697 5Z" fill="#DDDDDD"/>
</svg>
