<svg width="16" height="16" viewBox="0 0 16 16" fill="none" xmlns="http://www.w3.org/2000/svg">
<mask id="mask0_357_3249" style="mask-type:alpha" maskUnits="userSpaceOnUse" x="0" y="0" width="16" height="16">
<rect width="16" height="16" fill="#D9D9D9"/>
</mask>
<g mask="url(#mask0_357_3249)">
<path d="M7.33301 11.3333H8.66634V7.33331H7.33301V11.3333ZM7.99967 5.99998C8.18856 5.99998 8.3469 5.93609 8.47467 5.80831C8.60245 5.68054 8.66634 5.5222 8.66634 5.33331C8.66634 5.14442 8.60245 4.98609 8.47467 4.85831C8.3469 4.73053 8.18856 4.66665 7.99967 4.66665C7.81079 4.66665 7.65245 4.73053 7.52467 4.85831C7.3969 4.98609 7.33301 5.14442 7.33301 5.33331C7.33301 5.5222 7.3969 5.68054 7.52467 5.80831C7.65245 5.93609 7.81079 5.99998 7.99967 5.99998ZM7.99967 14.6666C7.07745 14.6666 6.21079 14.4916 5.39967 14.1416C4.58856 13.7916 3.88301 13.3166 3.28301 12.7166C2.68301 12.1166 2.20801 11.4111 1.85801 10.6C1.50801 9.78887 1.33301 8.9222 1.33301 7.99998C1.33301 7.07776 1.50801 6.21109 1.85801 5.39998C2.20801 4.58887 2.68301 3.88331 3.28301 3.28331C3.88301 2.68331 4.58856 2.20831 5.39967 1.85831C6.21079 1.50831 7.07745 1.33331 7.99967 1.33331C8.9219 1.33331 9.78856 1.50831 10.5997 1.85831C11.4108 2.20831 12.1163 2.68331 12.7163 3.28331C13.3163 3.88331 13.7913 4.58887 14.1413 5.39998C14.4913 6.21109 14.6663 7.07776 14.6663 7.99998C14.6663 8.9222 14.4913 9.78887 14.1413 10.6C13.7913 11.4111 13.3163 12.1166 12.7163 12.7166C12.1163 13.3166 11.4108 13.7916 10.5997 14.1416C9.78856 14.4916 8.9219 14.6666 7.99967 14.6666Z" fill="#999999"/>
</g>
</svg>
