<svg width="6" height="10" viewBox="0 0 6 10" fill="none" xmlns="http://www.w3.org/2000/svg">
<path d="M3.62303 5L0.27855 1.67015C0.0928501 1.48527 0 1.25313 0 0.973742C0 0.694355 0.0928501 0.462218 0.27855 0.277331C0.464249 0.0924437 0.697407 0 0.978022 0C1.25864 0 1.49179 0.0924437 1.67749 0.277331L5.7162 4.29836C5.81461 4.39635 5.88652 4.50512 5.93191 4.62468C5.9773 4.74423 6 4.86934 6 5C6 5.13066 5.9773 5.25577 5.93191 5.37532C5.88652 5.49488 5.81461 5.60365 5.7162 5.70164L1.67749 9.72267C1.49179 9.90756 1.25864 10 0.978022 10C0.697407 10 0.464249 9.90756 0.27855 9.72267C0.0928501 9.53778 0 9.30565 0 9.02626C0 8.74687 0.0928501 8.51473 0.27855 8.32985L3.62303 5Z" fill="#333333"/>
</svg>
