<svg width="20" height="20" viewBox="0 0 20 20" fill="none" xmlns="http://www.w3.org/2000/svg">
<mask id="mask0_357_4387" style="mask-type:alpha" maskUnits="userSpaceOnUse" x="0" y="0" width="20" height="20">
<rect width="20" height="20" fill="#D9D9D9"/>
</mask>
<g mask="url(#mask0_357_4387)">
<path d="M14.9997 13.1253C14.9997 14.5698 14.4927 15.7989 13.4788 16.8128C12.465 17.8267 11.2358 18.3337 9.79134 18.3337C8.3469 18.3337 7.11773 17.8267 6.10384 16.8128C5.08995 15.7989 4.58301 14.5698 4.58301 13.1253V5.41699C4.58301 4.37533 4.94759 3.48991 5.67676 2.76074C6.40592 2.03158 7.29134 1.66699 8.33301 1.66699C9.37467 1.66699 10.2601 2.03158 10.9893 2.76074C11.7184 3.48991 12.083 4.37533 12.083 5.41699V12.7087C12.083 13.3475 11.8608 13.8892 11.4163 14.3337C10.9719 14.7781 10.4302 15.0003 9.79134 15.0003C9.15245 15.0003 8.61079 14.7781 8.16634 14.3337C7.7219 13.8892 7.49967 13.3475 7.49967 12.7087V5.00033H9.16634V12.7087C9.16634 12.8892 9.22537 13.0385 9.34342 13.1566C9.46148 13.2746 9.61079 13.3337 9.79134 13.3337C9.9719 13.3337 10.1212 13.2746 10.2393 13.1566C10.3573 13.0385 10.4163 12.8892 10.4163 12.7087V5.41699C10.4025 4.83366 10.1976 4.3406 9.80176 3.93783C9.40592 3.53505 8.91634 3.33366 8.33301 3.33366C7.74967 3.33366 7.25662 3.53505 6.85384 3.93783C6.45106 4.3406 6.24967 4.83366 6.24967 5.41699V13.1253C6.23579 14.1114 6.57606 14.9482 7.27051 15.6357C7.96495 16.3232 8.80523 16.667 9.79134 16.667C10.7636 16.667 11.59 16.3232 12.2705 15.6357C12.9511 14.9482 13.3052 14.1114 13.333 13.1253V5.00033H14.9997V13.1253Z" fill="#FEB700"/>
</g>
</svg>
