<svg width="110" height="18" viewBox="0 0 110 18" fill="none" xmlns="http://www.w3.org/2000/svg">
<rect width="110" height="18" fill="#F5F5F5"/>
<path d="M-325 -920C-325 -921.104 -324.105 -922 -323 -922H9763C9764.1 -922 9765 -921.105 9765 -920V23343C9765 23344.1 9764.1 23345 9763 23345H-323C-324.104 23345 -325 23344.1 -325 23343V-920Z" fill="white" fill-opacity="0.2"/>
<path d="M-323 -921H9763V-923H-323V-921ZM9764 -920V23343H9766V-920H9764ZM9763 23344H-323V23346H9763V23344ZM-324 23343V-920H-326V23343H-324ZM-323 23344C-323.552 23344 -324 23343.6 -324 23343H-326C-326 23344.7 -324.656 23346 -323 23346V23344ZM9764 23343C9764 23343.6 9763.55 23344 9763 23344V23346C9764.66 23346 9766 23344.7 9766 23343H9764ZM9763 -921C9763.55 -921 9764 -920.552 9764 -920H9766C9766 -921.657 9764.66 -923 9763 -923V-921ZM-323 -923C-324.657 -923 -326 -921.656 -326 -920H-324C-324 -920.552 -323.552 -921 -323 -921V-923Z" fill="white" fill-opacity="0.1"/>
<path d="M-225 -820C-225 -821.105 -224.105 -822 -223 -822H2411C2412.1 -822 2413 -821.105 2413 -820V735C2413 736.105 2412.1 737 2411 737H-223C-224.105 737 -225 736.105 -225 735V-820Z" fill="#404040"/>
<path d="M-223 -821H2411V-823H-223V-821ZM2412 -820V735H2414V-820H2412ZM2411 736H-223V738H2411V736ZM-224 735V-820H-226V735H-224ZM-223 736C-223.552 736 -224 735.552 -224 735H-226C-226 736.657 -224.657 738 -223 738V736ZM2412 735C2412 735.552 2411.55 736 2411 736V738C2412.66 738 2414 736.657 2414 735H2412ZM2411 -821C2411.55 -821 2412 -820.552 2412 -820H2414C2414 -821.657 2412.66 -823 2411 -823V-821ZM-223 -823C-224.657 -823 -226 -821.657 -226 -820H-224C-224 -820.552 -223.552 -821 -223 -821V-823Z" fill="white" fill-opacity="0.1"/>
<rect width="360" height="800" transform="translate(-125 -722)" fill="url(#paint0_linear_0_1)"/>
<path d="M20.6494 10.4968H17.8878V17.7679H20.6494V10.4968Z" fill="white"/>
<path d="M19.2662 9.45474C18.3937 9.46421 17.6789 8.75368 17.6696 7.86316C17.6603 6.97263 18.3565 6.24316 19.2291 6.23368C20.1017 6.22421 20.8165 6.93474 20.8257 7.82526C20.8257 7.83 20.8257 7.83947 20.8257 7.84421C20.8304 8.73 20.1342 9.45 19.2662 9.45474Z" fill="white"/>
<path d="M14.17 10.9374C13.8591 10.8 13.5342 10.6768 13.2186 10.5584L13.1954 10.5489C12.2253 10.1842 11.311 9.84316 11.3435 9.22263C11.3667 8.82474 11.7055 8.39842 12.5966 8.39842C13.6641 8.38895 14.7177 8.66368 15.646 9.19895L15.7759 9.28421C15.7759 9.28421 15.8038 9.28895 15.8177 9.28895C15.8781 9.28895 15.9338 9.24158 15.9384 9.17526V7.27579L15.8595 7.21895C14.8662 6.57474 13.7152 6.22895 12.5363 6.22421C10.9722 6.22421 8.63291 7.11 8.58186 9.54474C8.53544 11.7616 10.0996 12.5242 11.5709 13.0689C12.9911 13.59 13.757 14.0021 13.757 14.6889C13.757 15.3758 13.1025 15.8163 11.9561 15.8163C10.9675 15.8021 9.99747 15.5084 9.16667 14.9589L9.05063 14.8737C8.99029 14.8405 8.91603 14.8642 8.88354 14.9211C8.87426 14.94 8.86962 14.9589 8.86962 14.9779V16.9247L8.95781 16.9816C10.0392 17.6447 11.2738 17.9905 12.5363 17.9953C15.4928 17.9953 16.5418 15.9489 16.5418 14.2011C16.5418 12.7137 15.7667 11.6432 14.17 10.9326V10.9374Z" fill="white"/>
<path d="M27.5557 10.9374C27.2447 10.8 26.9198 10.6768 26.6042 10.5584L26.581 10.5489C25.611 10.1842 24.6966 9.84316 24.7291 9.22263C24.7523 8.82474 25.0911 8.39842 25.9823 8.39842C27.0498 8.38895 28.1034 8.66368 29.0316 9.19895L29.157 9.28421C29.157 9.28421 29.1895 9.29369 29.2034 9.29369C29.2637 9.29369 29.3194 9.24632 29.3241 9.18474V7.76842C29.3241 7.73526 29.143 6.92053 27.8481 5.53263C24.2093 1.64368 19.2291 0 14.7038 0C8.0249 0 1.6384 4.56632 0.227426 8.36053C0.185654 8.46474 0.148523 8.56895 0.120675 8.67789C0.0464135 8.96211 0.00464135 9.25105 0 9.54474V9.67263C0.0139241 11.7947 1.54557 12.5384 2.98439 13.0689C4.40464 13.59 5.17046 14.0021 5.17046 14.6889C5.17046 15.3758 4.51603 15.8163 3.36962 15.8163C2.38101 15.8021 1.41561 15.5084 0.580169 14.9589L0.464135 14.8737C0.464135 14.8737 0.427004 14.8595 0.403797 14.8595C0.338819 14.8595 0.283122 14.9116 0.278481 14.9826V16.9295L0.366667 16.9863C1.4481 17.6495 2.6827 17.9953 3.94515 18C6.90169 18 7.95063 15.9537 7.95063 14.2058C7.95063 12.7184 7.17553 11.6479 5.5789 10.9374C5.26793 10.8 4.94304 10.6768 4.62743 10.5584L4.60422 10.5489C3.63418 10.1842 2.71983 9.84316 2.75232 9.22263C2.77553 8.82474 3.11435 8.39842 4.00549 8.39842C5.073 8.38895 6.12194 8.66368 7.05485 9.19895L7.18481 9.28421C7.18481 9.28421 7.21266 9.28895 7.22658 9.28895C7.28692 9.28895 7.34262 9.24158 7.34726 9.17526V7.27579L7.26835 7.21895C6.27511 6.57474 5.12405 6.22895 3.94515 6.22421C3.87089 6.22421 3.79662 6.22421 3.72236 6.22895H3.727C10.8747 2.34474 19.4426 2.35895 26.5764 6.26211C26.3582 6.23842 26.1354 6.22421 25.9173 6.22421C24.3578 6.22421 22.0139 7.11 21.9629 9.54474C21.9165 11.7616 23.4806 12.5242 24.9519 13.0689C26.3722 13.59 27.138 14.0021 27.138 14.6889C27.138 15.3758 26.4835 15.8163 25.3371 15.8163C24.3485 15.8068 23.3785 15.5084 22.5477 14.9637L22.4316 14.8784C22.4316 14.8784 22.3945 14.8642 22.376 14.8642C22.3063 14.8642 22.2553 14.9163 22.2506 14.9874V16.9295L22.3388 16.9863C23.4203 17.6495 24.6549 17.9953 25.9173 18C28.8738 18 29.9228 15.9537 29.9228 14.2058C29.9228 12.7184 29.1477 11.6526 27.5511 10.9421L27.5557 10.9374Z" fill="white"/>
<path d="M104.245 16.9295V14.5705H105.554V16.0342H110V16.9295H104.245Z" fill="white"/>
<path d="M108.566 13.9547H106.821V13.1305H108.566V12.3489L108.496 12.3916C108.357 12.4816 108.148 12.6474 106.969 12.6474H105.554V14.0116H104.245V12.6474H101.97V11.7521H107.206C107.665 11.7805 108.125 11.6763 108.524 11.4489L108.561 11.43V8.09053H109.786V14.1632C109.773 14.6274 109.415 15.0016 108.96 15.0253H108.566V13.9547Z" fill="white"/>
<path d="M65.0764 16.9295V14.1016L65.0392 14.1205C64.8072 14.2058 64.5612 14.2579 64.3152 14.2768C64.0553 14.3005 63.7025 14.3147 63.2662 14.3147H58.6574V13.4195H61.1219V12.4674H61.1034C60.2772 12.2637 59.6878 11.5247 59.6599 10.6626C59.6599 10.2363 59.8177 9.82895 60.0962 9.51158L60.1287 9.46895H59.0658V8.62105H61.1173V7.75895H62.3333V8.62105H64.3662V9.46895H63.3173L63.3498 9.51158C63.6283 9.82895 63.7814 10.2411 63.7861 10.6626C63.7582 11.52 63.1734 12.2542 62.3519 12.4579H62.3333V13.4195H63.6561C63.9253 13.4195 64.1992 13.4005 64.4637 13.3532C64.6679 13.32 64.8721 13.2679 65.0624 13.1874H65.0764V8.09053H66.2785V16.0721C66.2646 16.56 65.8608 16.9484 65.3827 16.9342H65.0717L65.0764 16.9295ZM61.7207 9.66789C61.1823 9.59684 60.6903 9.99 60.6253 10.5395C60.5557 11.0889 60.9409 11.5911 61.4793 11.6574C62.0177 11.7284 62.5097 11.3353 62.5747 10.7858C62.5793 10.7432 62.584 10.7053 62.584 10.6626C62.6118 10.1463 62.2312 9.70105 61.7253 9.66789H61.7207Z" fill="white"/>
<path d="M55.7705 16.9295V8.08579H56.9865V11.0368H58.2489V11.9321H56.9865V16.0674C56.9726 16.5553 56.5688 16.9389 56.0907 16.9295H55.7705Z" fill="white"/>
<path d="M54.5173 13.8458C53.6308 13.5 52.8557 12.8937 52.2941 12.1121L52.2709 12.0789L52.2477 12.1121C51.6954 12.9032 50.9203 13.5095 50.0245 13.8458H50.0059L49.3654 13.0974L49.4025 13.0832C49.4954 13.0453 51.635 12.1595 51.635 10.0089V8.13316H52.9068V10.0089C52.9068 12.0411 55.116 13.0737 55.1346 13.0832L55.1671 13.0974L54.5312 13.8505L54.5127 13.8411L54.5173 13.8458Z" fill="white"/>
<path d="M47.3743 13.2821H45.7544V12.15H49.1797V11.2358H47.8848C47.9637 10.8284 48.0008 10.4163 48.0008 9.99947V8.08579H42.6354V9.01421H46.8544L46.8451 10.1889C46.8451 10.5395 46.8312 10.8853 46.7895 11.2311H41.489V12.1453H44.5616V13.2774H42.4591V14.2153H46.7941V16.92H47.1886C47.6388 16.9295 48.0101 16.5695 48.0194 16.11V13.9074C48.0101 13.5474 47.7177 13.2679 47.365 13.2726L47.3743 13.2821Z" fill="white"/>
<path d="M35.5527 13.8553H34.2439V16.9295H39.9945V15.9205H35.5527V13.8553Z" fill="white"/>
<path d="M39.8924 10.5489V8.09053H38.6903V15.0205H38.9966C39.4747 15.0347 39.8785 14.6511 39.8924 14.1584V11.4442H41.1549V10.5489H39.8924Z" fill="white"/>
<path d="M37.4696 10.9326C37.465 10.3642 37.2097 9.82895 36.7734 9.47368H37.9755V8.62579H35.9426V7.76368H34.7312V8.62579H32.6751V9.47368H33.8772C33.4409 9.82895 33.1857 10.3642 33.181 10.9326C33.2924 12.1405 34.346 13.0263 35.5249 12.9079C36.5506 12.8084 37.3629 11.9795 37.4603 10.9326H37.4696ZM34.346 10.9326C34.3831 10.3784 34.8519 9.96158 35.3949 9.99947C35.938 10.0374 36.3464 10.5158 36.3093 11.07C36.2722 11.5958 35.8452 12.0032 35.33 12.0032C34.7684 11.9842 34.3321 11.5058 34.3506 10.9326H34.346Z" fill="white"/>
<path d="M67.4063 14.9495V14.0542H71.0173V12.7184H68.4367V8.09053H69.6527V9.54474H73.4726V8.09053H74.6886V11.8611C74.6747 12.3489 74.2709 12.7326 73.7928 12.7232H72.238V14.0589H75.8397V14.9542H67.411L67.4063 14.9495ZM69.6481 11.8232H73.4679V10.44H69.6481V11.8232Z" fill="white"/>
<path d="M80.6992 12.69C79.873 12.33 79.1675 11.7284 78.6709 10.9611L78.6477 10.9279L78.6245 10.9611C78.1418 11.7379 77.4316 12.3442 76.5962 12.69H76.5776L75.9603 12.0174L76.0021 12.0032C77.1671 11.5579 77.9422 10.4258 77.9515 9.15632V8.97158H76.3873V8.08579H80.9312V8.97158H79.3439V9.15632C79.381 10.4021 80.1236 11.5105 81.2468 11.9984L81.284 12.0126L80.7224 12.6947L80.6992 12.6853V12.69Z" fill="white"/>
<path d="M82.1705 8.09053H83.3865V9.75789H84.6489V10.6532H83.3865V12.1453C83.3726 12.6332 82.9688 13.0216 82.4907 13.0074H82.1705V8.09053Z" fill="white"/>
<path d="M81.0055 16.9295C79.7245 16.9295 78.6802 16.0389 78.6802 14.94C78.6802 13.8411 79.7245 12.9505 81.0055 12.9505C82.2865 12.9505 83.3262 13.8411 83.3262 14.94C83.3262 16.0389 82.2865 16.9295 81.0055 16.9295ZM81.0055 13.8695C80.4253 13.8789 79.9612 14.3621 79.9705 14.9542C79.9797 15.5463 80.4532 16.02 81.0333 16.0105C81.6089 16.0011 82.0684 15.5274 82.0684 14.94C82.0684 14.3432 81.5903 13.8647 81.0055 13.8695Z" fill="white"/>
<path d="M91.4114 13.0026V10.62H89.903V9.71526H91.4114V8.08579H92.6367V12.1879C92.5949 12.6568 92.2004 13.0168 91.7409 13.0026H91.4114Z" fill="white"/>
<path d="M93.5696 14.1537H97.176V12.7184H94.5954V8.09053H95.8114V9.54474H99.6266V8.09053H100.843V11.8611C100.829 12.3489 100.425 12.7326 99.9468 12.7232H98.392V14.1584H101.994V15.0537H93.5696V14.1537ZM95.816 11.8232H99.6312V10.44H95.816V11.8232Z" fill="white"/>
<path d="M90.1489 16.9295C88.8679 16.9295 87.8236 16.0389 87.8236 14.94C87.8236 13.8411 88.8679 12.9505 90.1489 12.9505C91.43 12.9505 92.4696 13.8411 92.4696 14.94C92.4696 16.0389 91.43 16.9295 90.1489 16.9295ZM90.1489 13.8695C89.5688 13.8742 89.1046 14.3621 89.1139 14.9542C89.1186 15.5463 89.5966 16.02 90.1768 16.0105C90.7523 16.0058 91.2118 15.5274 91.2165 14.94C91.2118 14.3479 90.7384 13.8647 90.1536 13.8695H90.1489Z" fill="white"/>
<path d="M89.5827 12.69C88.7705 12.3537 88.0696 11.79 87.5544 11.0653L87.5312 11.0321L87.508 11.0653C87.0068 11.8042 86.3013 12.3679 85.4797 12.69H85.4612L84.8392 12.0174L84.881 12.0032C86.046 11.5579 86.8211 10.4258 86.8304 9.15632V8.97158H85.2662V8.08579H89.8101V8.97158H88.2181V9.15632C88.2553 10.4021 88.9979 11.5105 90.1211 11.9984L90.1582 12.0126L89.5966 12.6947L89.5734 12.6853L89.5827 12.69Z" fill="white"/>
<path d="M104.899 11.4679C103.725 11.4679 102.769 10.6342 102.769 9.61579C102.769 8.59737 103.725 7.76368 104.899 7.76368C106.073 7.76368 107.025 8.59737 107.025 9.61579C107.025 10.6342 106.069 11.4679 104.899 11.4679ZM104.899 8.67316C104.389 8.63053 103.943 9.01895 103.901 9.54C103.859 10.0611 104.24 10.5158 104.751 10.5584C105.261 10.6011 105.707 10.2126 105.749 9.69158C105.749 9.66789 105.749 9.63947 105.749 9.61579C105.767 9.11842 105.386 8.69684 104.899 8.67316Z" fill="white"/>
<defs>
<linearGradient id="paint0_linear_0_1" x1="0" y1="0" x2="495.507" y2="704.721" gradientUnits="userSpaceOnUse">
<stop stop-color="#FEB700"/>
<stop offset="1" stop-color="#FF6D00"/>
</linearGradient>
</defs>
</svg>
