<svg width="175" height="28" viewBox="0 0 175 28" fill="none" xmlns="http://www.w3.org/2000/svg">
<rect width="175" height="28" fill="#F5F5F5"/>
<path d="M-292 -584C-292 -585.104 -291.105 -586 -290 -586H9796C9797.1 -586 9798 -585.105 9798 -584V23679C9798 23680.1 9797.1 23681 9796 23681H-290C-291.104 23681 -292 23680.1 -292 23679V-584Z" fill="white" fill-opacity="0.2"/>
<path d="M-290 -585H9796V-587H-290V-585ZM9797 -584V23679H9799V-584H9797ZM9796 23680H-290V23682H9796V23680ZM-291 23679V-584H-293V23679H-291ZM-290 23680C-290.552 23680 -291 23679.6 -291 23679H-293C-293 23680.7 -291.656 23682 -290 23682V23680ZM9797 23679C9797 23679.6 9796.55 23680 9796 23680V23682C9797.66 23682 9799 23680.7 9799 23679H9797ZM9796 -585C9796.55 -585 9797 -584.552 9797 -584H9799C9799 -585.657 9797.66 -587 9796 -587V-585ZM-290 -587C-291.657 -587 -293 -585.656 -293 -584H-291C-291 -584.552 -290.552 -585 -290 -585V-587Z" fill="white" fill-opacity="0.1"/>
<path d="M-192 -484C-192 -485.105 -191.105 -486 -190 -486H2444C2445.1 -486 2446 -485.105 2446 -484V1071C2446 1072.1 2445.1 1073 2444 1073H-190C-191.105 1073 -192 1072.1 -192 1071V-484Z" fill="#404040"/>
<path d="M-190 -485H2444V-487H-190V-485ZM2445 -484V1071H2447V-484H2445ZM2444 1072H-190V1074H2444V1072ZM-191 1071V-484H-193V1071H-191ZM-190 1072C-190.552 1072 -191 1071.55 -191 1071H-193C-193 1072.66 -191.657 1074 -190 1074V1072ZM2445 1071C2445 1071.55 2444.55 1072 2444 1072V1074C2445.66 1074 2447 1072.66 2447 1071H2445ZM2444 -485C2444.55 -485 2445 -484.552 2445 -484H2447C2447 -485.657 2445.66 -487 2444 -487V-485ZM-190 -487C-191.657 -487 -193 -485.657 -193 -484H-191C-191 -484.552 -190.552 -485 -190 -485V-487Z" fill="white" fill-opacity="0.1"/>
<rect width="360" height="800" transform="translate(-92 -386)" fill="url(#paint0_linear_0_1)"/>
<path d="M27.4441 14.1225V19.2385H0V14.1225H10.1445V12.7133H0.76322V0.33698H7.88661V1.96061H19.5257V0.33698H26.6491V12.7133H17.2997V14.1225H27.4441ZM0.76322 25.7637V20.6171H26.6809V27.8468H19.5575V25.7637H0.76322ZM7.88661 6.58643V7.93435H19.5257V6.58643H7.88661Z" fill="white"/>
<path d="M42.0089 7.01532C42.0089 9.89497 42.2633 12.407 42.7403 14.4902C43.2491 16.5733 43.9488 18.1969 44.871 19.3304C45.7296 20.4639 46.7472 21.0766 47.9239 21.1991L46.3974 26.8972C44.9664 26.8053 43.5671 26.3151 42.2315 25.4267C40.8641 24.5383 39.6874 23.2823 38.6698 21.6893C37.6204 23.3129 36.412 24.5689 35.0763 25.4267C33.7407 26.2845 32.3097 26.8053 30.9104 26.8972L29.384 21.1991C31.451 21.0153 32.9457 19.7287 33.8997 17.4004C34.8537 15.0722 35.2989 11.6105 35.2989 6.98468V5.91247H30.1472V0.428884H47.1606V5.94311H42.0407V7.01532H42.0089ZM49.6411 0H56.8281V28H49.6411V0Z" fill="white"/>
<path d="M59.4994 21.3523V16.2057H77.9439V21.3523H72.0289L71.6473 28H64.8419V21.3523H59.4994ZM63.8243 13.8775C62.5522 13.2648 61.5982 12.4376 60.8986 11.3348C60.199 10.2626 59.881 9.00656 59.881 7.59737C59.881 6.18818 60.2308 4.93217 60.8986 3.82932C61.5664 2.72648 62.5522 1.89934 63.8243 1.28665C65.0963 0.704595 66.5592 0.398249 68.181 0.398249C69.8028 0.398249 71.2975 0.704595 72.5695 1.28665C73.8415 1.89934 74.8274 2.72648 75.5588 3.79869C76.2584 4.90153 76.5764 6.15755 76.5764 7.59737C76.5764 9.0372 76.2266 10.2626 75.527 11.3654C74.8274 12.4683 73.8415 13.2954 72.5695 13.8775C71.3293 14.4902 69.8664 14.7965 68.181 14.7965C66.4956 14.7965 65.0645 14.4902 63.8243 13.9081V13.8775ZM66.7818 8.2407C66.7818 8.66958 66.909 9.00656 67.1634 9.25164C67.4178 9.49672 67.7676 9.64989 68.181 9.64989C68.5944 9.64989 68.9442 9.52735 69.1986 9.25164C69.453 8.97593 69.5802 8.66958 69.5802 8.2407V6.92341C69.5802 6.49453 69.453 6.15755 69.1986 5.91247C68.9442 5.6674 68.5944 5.51422 68.181 5.51422C67.7676 5.51422 67.4178 5.63676 67.1634 5.91247C66.909 6.18818 66.7818 6.49453 66.7818 6.92341V8.2407ZM86.2757 0.0612691V28H79.0569V0.0612691H86.2757Z" fill="white"/>
<path d="M88.5653 21.3829C89.9646 21.3829 91.3956 20.8928 92.8266 19.9431C94.3849 18.9015 95.6251 17.2166 96.6109 14.8271C97.565 12.4376 98.0738 9.46608 98.0738 5.8512H88.9469V0.367615H105.229V5.88184C105.229 10.14 104.561 13.8468 103.257 16.9716C101.922 20.1575 100.045 22.6083 97.6286 24.3239C95.2117 26.0394 92.445 26.8972 89.3286 26.8972L88.5653 21.3829ZM115.66 0.0612691V28H108.473V0.0612691H115.66Z" fill="white"/>
<path d="M128.444 0.0306346C130.701 0.0306346 132.482 0.582057 133.723 1.6849C134.995 2.78775 135.599 4.31947 135.599 6.28009C135.599 8.2407 134.963 9.77243 133.723 10.8753C132.45 11.9781 130.701 12.5295 128.444 12.5295H125.518C123.26 12.5295 121.479 11.9781 120.239 10.8753C118.967 9.77243 118.363 8.2407 118.363 6.28009C118.363 4.31947 118.999 2.78775 120.239 1.6849C121.511 0.582057 123.26 0.0306346 125.518 0.0306346L128.444 0V0.0306346ZM126.281 22.8534V23.9562H145.425V28H119.094V18.8096H137.92V17.7068H119.094V13.663H145.044V22.8534H126.281ZM127.585 7.5361C128.03 7.5361 128.348 7.41357 128.571 7.19912C128.793 6.98468 128.921 6.6477 128.921 6.24945C128.921 5.39168 128.475 4.9628 127.585 4.9628H126.408C125.995 4.9628 125.677 5.08534 125.422 5.29978C125.168 5.51422 125.073 5.8512 125.073 6.24945C125.073 6.6477 125.2 6.95405 125.422 7.19912C125.677 7.4442 125.995 7.5361 126.408 7.5361H127.585ZM145.044 3.92123H147.906V8.57768H145.044V12.6214H137.92V0.0612691H145.044V3.92123Z" fill="white"/>
<path d="M155.474 10.0481V11.3042H165.333V15.5011H148.319V5.8512H157.414V4.59519H148.319V0.367615H164.569V10.0481H155.474ZM175 28H149.051V17.3085H175V28ZM156.238 21.9344V23.4048H167.845V21.9344H156.238ZM175 15.8381H167.813V0.0612691H175V15.8381Z" fill="white"/>
<defs>
<linearGradient id="paint0_linear_0_1" x1="0" y1="0" x2="495.507" y2="704.721" gradientUnits="userSpaceOnUse">
<stop stop-color="#FEB700"/>
<stop offset="1" stop-color="#FF6D00"/>
</linearGradient>
</defs>
</svg>
